<?xml version="1.0" encoding="UTF-8" standalone="no"?>
<!-- Created with Inkscape (http://www.inkscape.org/) -->

<svg
   xmlns:dc="http://purl.org/dc/elements/1.1/"
   xmlns:cc="http://creativecommons.org/ns#"
   xmlns:rdf="http://www.w3.org/1999/02/22-rdf-syntax-ns#"
   xmlns:svg="http://www.w3.org/2000/svg"
   xmlns="http://www.w3.org/2000/svg"
   xmlns:sodipodi="http://sodipodi.sourceforge.net/DTD/sodipodi-0.dtd"
   xmlns:inkscape="http://www.inkscape.org/namespaces/inkscape"
   width="1024"
   height="1024"
   viewBox="0 0 1024 1024"
   id="svg2"
   version="1.1"
   inkscape:version="0.91 r13725"
   sodipodi:docname="akaraw.svg">
  <sodipodi:namedview
     id="base"
     pagecolor="#ffffff"
     bordercolor="#666666"
     borderopacity="1.0"
     inkscape:pageopacity="0.0"
     inkscape:pageshadow="2"
     inkscape:zoom="0.28229029"
     inkscape:cx="616.98011"
     inkscape:cy="676.12598"
     inkscape:document-units="px"
     inkscape:current-layer="layer1"
     showgrid="true"
     inkscape:window-width="1366"
     inkscape:window-height="722"
     inkscape:window-x="0"
     inkscape:window-y="0"
     inkscape:window-maximized="1"
     units="px"
     showguides="false">
    <inkscape:grid
       type="xygrid"
       id="grid4300" />
  </sodipodi:namedview>
  <defs
     id="defs4">
    <clipPath
       clipPathUnits="userSpaceOnUse"
       id="clipPath4355">
      <path
         sodipodi:nodetypes="sccscs"
         inkscape:connector-curvature="0"
         id="path4357"
         d="M 276.70255,580.10512 C 48.877669,90.705065 499.60288,100.95156 499.60288,100.95156 l 24.79426,0 c 0,0 450.72517,-10.246525 222.90033,479.15353 -40.66406,87.35222 -235.29746,399.68423 -235.29746,399.68423 0,0 -194.6334,-312.33201 -235.29746,-399.6842 z"
         style="fill:#7baf7e;fill-opacity:1;fill-rule:evenodd;stroke:none;stroke-width:0.78998005px;stroke-linecap:butt;stroke-linejoin:miter;stroke-opacity:1" />
    </clipPath>
  </defs>
  <metadata
     id="metadata7">
    <rdf:RDF>
      <cc:Work
         rdf:about="">
        <dc:format>image/svg+xml</dc:format>
        <dc:type
           rdf:resource="http://purl.org/dc/dcmitype/StillImage" />
        <dc:title />
      </cc:Work>
    </rdf:RDF>
  </metadata>
  <g
     id="layer1"
     inkscape:groupmode="layer"
     inkscape:label="Layer 1"
     transform="translate(0,-28.362161)">
    <g
       id="g4144"
       transform="matrix(-1,0,0,1,429.58906,0)">
      <g
         id="g4146"
         style="opacity:1;fill:#d69c55;fill-opacity:1;stroke:#d69e57;stroke-width:2;stroke-miterlimit:4;stroke-dasharray:none;stroke-opacity:1" />
      <g
         id="g4162">
        <g
           style="opacity:1;fill:#d69c55;fill-opacity:1;stroke:#d69e57;stroke-width:2;stroke-miterlimit:4;stroke-dasharray:none;stroke-opacity:1"
           id="g4164" />
        <g
           id="g4184">
          <g
             id="g4186"
             style="opacity:1;fill:#d69c55;fill-opacity:1;stroke:#d69e57;stroke-width:2;stroke-miterlimit:4;stroke-dasharray:none;stroke-opacity:1" />
        </g>
      </g>
    </g>
    <path
       style="fill:#7baf7e;fill-opacity:1;fill-rule:evenodd;stroke:none;stroke-width:0.78998005px;stroke-linecap:butt;stroke-linejoin:miter;stroke-opacity:1"
       d="M 276.70255,580.10512 C 48.877669,90.705065 499.60288,100.95156 499.60288,100.95156 l 24.79426,0 c 0,0 450.72517,-10.246525 222.90033,479.15353 -40.66406,87.35222 -235.29746,399.68423 -235.29746,399.68423 0,0 -194.6334,-312.33201 -235.29746,-399.6842 z"
       id="path4293"
       inkscape:connector-curvature="0"
       sodipodi:nodetypes="sccscs" />
    <g
       id="g4276"
       style="fill:#000000;opacity:0.4"
       clip-path="url(#clipPath4355)">
      <g
         id="g4278"
         style="opacity:1;fill:#000000;fill-opacity:1;stroke:none;stroke-width:2;stroke-miterlimit:4;stroke-dasharray:none;stroke-opacity:1">
        <path
           id="path4280"
           d="M380.75 245.36216L380.75 595.36216L1087.85678119 1302.46894119L1087.85678119 952.468941187Z"
           style="fill:#000000" />
        <path
           id="path4282"
           d="M380.75 595.36216L424.5 595.36216L1131.60678119 1302.46894119L1087.85678119 1302.46894119Z"
           style="fill:#000000" />
        <path
           id="path4284"
           d="M424.5 595.36216L643.25 595.36216L1350.35678119 1302.46894119L1131.60678119 1302.46894119Z"
           style="fill:#000000" />
        <path
           id="path4286"
           d="M643.25 595.36216L643.25 551.61216L1350.35678119 1258.71894119L1350.35678119 1302.46894119Z"
           style="fill:#000000" />
        <path
           id="path4288"
           d="M643.25 551.61216L424.5 551.61216L1131.60678119 1258.71894119L1350.35678119 1258.71894119Z"
           style="fill:#000000" />
        <path
           id="path4290"
           d="M424.5 551.61216L424.5 245.36216L1131.60678119 952.468941187L1131.60678119 1258.71894119Z"
           style="fill:#000000" />
        <path
           id="path4292"
           d="M424.5 245.36216L380.75 245.36216L1087.85678119 952.468941187L1131.60678119 952.468941187Z"
           style="fill:#000000" />
        <path
           id="path4294"
           d="M468.25 289.11216L468.25 507.86216L1175.35678119 1214.96894119L1175.35678119 996.218941187Z"
           style="fill:#000000" />
        <path
           id="path4296"
           d="M468.25 507.86216L512.0 507.86216L1219.10678119 1214.96894119L1175.35678119 1214.96894119Z"
           style="fill:#000000" />
        <path
           id="path4298"
           d="M512.0 507.86216L512.0 420.36216L1219.10678119 1127.46894119L1219.10678119 1214.96894119Z"
           style="fill:#000000" />
        <path
           id="path4300"
           d="M512.0 420.36216L555.75 420.36216L1262.85678119 1127.46894119L1219.10678119 1127.46894119Z"
           style="fill:#000000" />
        <path
           id="path4302"
           d="M555.75 420.36216L555.75 507.86216L1262.85678119 1214.96894119L1262.85678119 1127.46894119Z"
           style="fill:#000000" />
        <path
           id="path4304"
           d="M555.75 507.86216L599.5 507.86216L1306.60678119 1214.96894119L1262.85678119 1214.96894119Z"
           style="fill:#000000" />
        <path
           id="path4306"
           d="M599.5 507.86216L599.5 289.11216L1306.60678119 996.218941187L1306.60678119 1214.96894119Z"
           style="fill:#000000" />
        <path
           id="path4308"
           d="M599.5 289.11216L555.75 289.11216L1262.85678119 996.218941187L1306.60678119 996.218941187Z"
           style="fill:#000000" />
        <path
           id="path4310"
           d="M555.75 289.11216L555.75 376.61216L1262.85678119 1083.71894119L1262.85678119 996.218941187Z"
           style="fill:#000000" />
        <path
           id="path4312"
           d="M555.75 376.61216L512.0 376.61216L1219.10678119 1083.71894119L1262.85678119 1083.71894119Z"
           style="fill:#000000" />
        <path
           id="path4314"
           d="M512.0 376.61216L512.0 289.11216L1219.10678119 996.218941187L1219.10678119 1083.71894119Z"
           style="fill:#000000" />
        <path
           id="path4316"
           d="M512.0 289.11216L468.25 289.11216L1175.35678119 996.218941187L1219.10678119 996.218941187Z"
           style="fill:#000000" />
      </g>
      <path
         inkscape:connector-curvature="0"
         id="path4260"
         d="m 380.75,245.36216 0,350 43.75,0 218.75,0 0,-43.75 -218.75,0 0,-306.25 -43.75,0 z m 87.5,43.75 0,218.75 43.75,0 0,-87.5 43.75,0 0,87.5 43.75,0 0,-218.75 -43.75,0 0,87.5 -43.75,0 0,-87.5 -43.75,0 z"
         style="opacity:1;fill:#000000;fill-opacity:1;stroke:none;stroke-width:2;stroke-miterlimit:4;stroke-dasharray:none;stroke-opacity:1" />
    </g>
    <path
       style="opacity:1;fill:#ffffff;fill-opacity:1;stroke:none;stroke-width:2;stroke-miterlimit:4;stroke-dasharray:none;stroke-opacity:1"
       d="m 380.75,245.36216 0,350 43.75,0 218.75,0 0,-43.75 -218.75,0 0,-306.25 -43.75,0 z m 87.5,43.75 0,218.75 43.75,0 0,-87.5 43.75,0 0,87.5 43.75,0 0,-218.75 -43.75,0 0,87.5 -43.75,0 0,-87.5 -43.75,0 z"
       id="rect4151"
       inkscape:connector-curvature="0" />
  </g>
</svg>
